<svg width="14" height="24" viewBox="0 0 14 24" fill="none" xmlns="http://www.w3.org/2000/svg">
<path fill-rule="evenodd" clip-rule="evenodd" d="M5.51531 2.25883C6.63168 1.13316 8.14668 0.5 9.72727 0.5H13C13.2761 0.5 13.5 0.723858 13.5 1V5.4C13.5 5.67614 13.2761 5.9 13 5.9H9.72727C9.5719 5.9 9.42204 5.9622 9.3109 6.07427C9.19962 6.18648 9.13636 6.33954 9.13636 6.5V9.3H13C13.1538 9.3 13.299 9.37078 13.3938 9.49191C13.4886 9.61304 13.5223 9.77105 13.4853 9.92032L12.3944 14.3203C12.3391 14.5434 12.1389 14.7 11.9091 14.7H9.13636V23C9.13636 23.2761 8.91251 23.5 8.63636 23.5H4.27273C3.99658 23.5 3.77273 23.2761 3.77273 23V14.7H1C0.723858 14.7 0.5 14.4761 0.5 14.2V9.8C0.5 9.52386 0.723858 9.3 1 9.3H3.77273V6.5C3.77273 4.91003 4.39908 3.38436 5.51531 2.25883ZM9.72727 1.5C8.41459 1.5 7.15483 2.02577 6.22534 2.963C5.29572 3.90036 4.77273 5.17259 4.77273 6.5V9.8C4.77273 10.0761 4.54887 10.3 4.27273 10.3H1.5V13.7H4.27273C4.54887 13.7 4.77273 13.9239 4.77273 14.2V22.5H8.13636V14.2C8.13636 13.9239 8.36022 13.7 8.63636 13.7H11.5179L12.3609 10.3H8.63636C8.36022 10.3 8.13636 10.0761 8.13636 9.8V6.5C8.13636 6.07699 8.30298 5.67047 8.60087 5.3701C8.89889 5.06959 9.30399 4.9 9.72727 4.9H12.5V1.5H9.72727Z" fill="white"/>
</svg>
