<svg width="748" height="186" viewBox="0 0 748 186" fill="none" xmlns="http://www.w3.org/2000/svg">
<path fill-rule="evenodd" clip-rule="evenodd" d="M43.2998 183H0.799805V0.100098H155.89V38.5501H43.2998V77.3201H151.84V115.5H43.2998V183ZM42.2998 182H1.7998V1.1001H154.89V37.5501H42.2998V78.3201H150.84V114.5H42.2998V182ZM213.632 183H171.132V45.7301H210.662V81.6401H211.255C213.256 70.8818 217.818 61.3248 225.283 54.4007C232.951 47.2878 243.6 43.0301 257.452 43.0301C272.822 43.0301 283.794 48.3263 290.899 57.1034C297.976 65.846 301.112 77.9117 301.112 91.2801V114.69H258.612V99.6501C258.612 92.3246 257.141 87.3262 253.883 84.1302C250.619 80.9284 245.343 79.3201 237.202 79.3201C228.289 79.3201 222.48 81.3834 218.869 85.3084C215.241 89.2519 213.632 95.2871 213.632 103.7V183ZM212.092 82.6401C215.872 60.7701 230.182 44.0301 257.452 44.0301C287.692 44.0301 300.112 64.8201 300.112 91.2801V113.69H259.612V99.6501C259.612 84.8001 253.672 78.3201 237.202 78.3201C219.112 78.3201 212.632 86.6901 212.632 103.7V182H172.132V46.7301H209.662V82.6401H212.092ZM443.462 166.34C429.71 178.755 410.149 185.7 386.868 185.7C363.587 185.7 344.027 178.755 330.275 166.34C316.512 153.916 308.648 136.087 308.648 114.5C308.648 92.6468 316.51 74.749 330.275 62.3228C344.029 49.9064 363.59 43.0301 386.868 43.0301C410.147 43.0301 429.708 49.9064 443.462 62.3228C457.227 74.749 465.088 92.6468 465.088 114.5C465.088 136.087 457.225 153.916 443.462 166.34ZM358.74 139.836C364.264 145.167 373.186 147.79 386.868 147.79C400.413 147.79 409.338 145.168 414.897 139.834C420.445 134.511 422.858 126.275 422.858 114.5C422.858 102.726 420.445 94.3482 414.889 88.8884C409.327 83.4229 400.402 80.6701 386.868 80.6701C373.197 80.6701 364.275 83.4241 358.749 88.8863C353.227 94.3439 350.878 102.719 350.878 114.5C350.878 126.282 353.227 134.515 358.74 139.836ZM522.128 183H479.628V45.7301H519.158V87.3101H519.737C521.63 76.0884 526.618 65.1418 535.502 56.9307C544.621 48.5019 557.767 43.0301 575.668 43.0301C594.387 43.0301 608.307 49.0492 617.541 58.9752C626.764 68.8885 631.208 82.5863 631.208 97.7601V183H588.708V111.26C588.708 100.566 586.497 93.2144 581.464 88.4999C576.413 83.7685 568.297 81.4801 555.958 81.4801C543.231 81.4801 534.849 84.0319 529.627 89.1903C524.409 94.3444 522.128 102.315 522.128 113.69V183ZM520.588 88.3101C524.098 65.6301 540.298 44.0301 575.668 44.0301C612.658 44.0301 630.208 67.7901 630.208 97.7601V182H589.708V111.26C589.708 89.6601 580.798 80.4801 555.958 80.4801C530.308 80.4801 521.128 90.7401 521.128 113.69V182H480.628V46.7301H518.158V88.3101H520.588ZM747.006 183H712.526C696.592 183 683.62 179.256 674.627 171.062C665.616 162.852 660.766 150.327 660.766 133.13V81.2101H639.436V45.7301H660.766V19.5401H703.266V45.7301H747.006V81.2101H703.266V128.54C703.266 135.213 704.544 139.071 707.261 141.34C710.034 143.656 714.56 144.55 721.706 144.55H747.006V183ZM702.266 20.5401V46.7301H746.006V80.2101H702.266V128.54C702.266 142.04 707.396 145.55 721.706 145.55H746.006V182H712.526C680.936 182 661.766 167.15 661.766 133.13V80.2101H640.436V46.7301H661.766V20.5401H702.266ZM464.088 114.5C464.088 157.16 433.038 184.7 386.868 184.7C340.698 184.7 309.648 157.16 309.648 114.5C309.648 71.3001 340.698 44.0301 386.868 44.0301C433.038 44.0301 464.088 71.3001 464.088 114.5ZM349.878 114.5C349.878 138.26 359.328 148.79 386.868 148.79C414.138 148.79 423.858 138.26 423.858 114.5C423.858 90.7401 414.138 79.6701 386.868 79.6701C359.328 79.6701 349.878 90.7401 349.878 114.5Z" fill="#9DD0FF" fill-opacity="0.05"/>
</svg>
