<svg width="23" height="22" viewBox="0 0 23 22" fill="none" xmlns="http://www.w3.org/2000/svg">
<path fill-rule="evenodd" clip-rule="evenodd" d="M1.04761 2.74999C1.04761 1.80906 1.8065 1.04999 2.73808 1.04999C3.66967 1.04999 4.42856 1.80906 4.42856 2.74999C4.42856 3.69092 3.66967 4.44999 2.73808 4.44999C1.8065 4.44999 1.04761 3.69092 1.04761 2.74999ZM2.73808 0.0499878C1.25013 0.0499878 0.0476074 1.26087 0.0476074 2.74999C0.0476074 4.23911 1.25013 5.44999 2.73808 5.44999C4.22604 5.44999 5.42856 4.23911 5.42856 2.74999C5.42856 1.26087 4.22604 0.0499878 2.73808 0.0499878ZM15.8809 7.64999C14.2714 7.64999 12.7273 8.29214 11.5886 9.43587C10.4497 10.5797 9.80951 12.1315 9.80951 13.75V20.95H13.1905V13.75C13.1905 13.0346 13.4734 12.3481 13.9777 11.8416C14.4821 11.335 15.1667 11.05 15.8809 11.05C16.5952 11.05 17.2798 11.335 17.7842 11.8416C18.2885 12.3481 18.5714 13.0346 18.5714 13.75V20.95H21.9524V13.75C21.9524 12.1315 21.3122 10.5797 20.1733 9.43587C19.0345 8.29214 17.4905 7.64999 15.8809 7.64999ZM10.8799 8.7303C12.2059 7.39855 14.0048 6.64999 15.8809 6.64999C17.7571 6.64999 19.556 7.39855 20.882 8.7303C22.2079 10.062 22.9524 11.8676 22.9524 13.75V21.45C22.9524 21.7261 22.7285 21.95 22.4524 21.95H18.0714C17.7953 21.95 17.5714 21.7261 17.5714 21.45V13.75C17.5714 13.2984 17.3928 12.8658 17.0755 12.5471C16.7583 12.2286 16.3286 12.05 15.8809 12.05C15.4333 12.05 15.0036 12.2286 14.6864 12.5471C14.3691 12.8658 14.1905 13.2984 14.1905 13.75V21.45C14.1905 21.7261 13.9666 21.95 13.6905 21.95H9.30951C9.03337 21.95 8.80951 21.7261 8.80951 21.45V13.75C8.80951 11.8676 9.55401 10.062 10.8799 8.7303ZM0.0476074 8.24999C0.0476074 7.97385 0.271465 7.74999 0.547607 7.74999H4.92856C5.2047 7.74999 5.42856 7.97385 5.42856 8.24999V21.45C5.42856 21.7261 5.2047 21.95 4.92856 21.95H0.547607C0.271465 21.95 0.0476074 21.7261 0.0476074 21.45V8.24999ZM1.04761 8.74999V20.95H4.42856V8.74999H1.04761Z" fill="white"/>
</svg>
