<svg width="169" height="33" viewBox="0 0 169 33" fill="none" xmlns="http://www.w3.org/2000/svg">
<g clip-path="url(#clip0_1_238)">
<path d="M3.43013 13.3204C3.43013 13.4343 3.43013 13.5237 3.43013 13.605V21.5826C3.42456 21.6653 3.44273 21.7478 3.48262 21.8211C3.5225 21.8943 3.58254 21.9553 3.65602 21.9973C6.50057 23.9246 9.31166 25.8601 12.1562 27.763C12.2421 27.8198 12.3315 27.8714 12.4239 27.9175V15.9308C12.608 15.8657 15.6031 15.8657 15.8541 15.9308V27.8931C15.988 27.8931 16.0298 27.8931 16.0968 27.7874C16.9334 27.2181 17.77 26.6652 18.6067 26.0959L24.6053 22.0299C24.94 21.8103 24.873 21.9241 24.873 21.5013V13.3041C25.2491 13.2799 25.6264 13.2799 26.0025 13.3041H28.2781C28.2781 13.4099 28.2781 13.4749 28.2781 13.5644V23.3229C28.2831 23.3971 28.267 23.4712 28.2316 23.5372C28.1962 23.6032 28.1428 23.6584 28.0774 23.6969C27.2909 24.2174 26.5212 24.7704 25.7348 25.3234C22.0369 27.8443 18.3138 30.3653 14.6243 32.8862L14.3984 33.0407C14.3315 32.9513 14.2394 32.8862 14.1725 32.7967C14.1043 32.884 14.0287 32.9656 13.9466 33.0407L13.7626 32.9106L3.89864 26.161L0.317848 23.7213C0.234998 23.6712 0.167824 23.6 0.123587 23.5154C0.0793506 23.4309 0.0597341 23.3362 0.0668582 23.2415V13.3448C1.18642 13.2708 2.30955 13.2627 3.43013 13.3204V13.3204Z" fill="white"/>
<path d="M28.2446 12.4665H24.8395C24.8395 12.377 24.8395 12.312 24.8395 12.2469V11.3849C24.8475 11.322 24.8348 11.2582 24.8032 11.2027C24.7716 11.1472 24.7229 11.1028 24.6638 11.0759C23.8272 10.5067 22.9487 9.92114 22.0954 9.3275L16.0967 5.26146C16.0044 5.20625 15.915 5.14654 15.829 5.08255V14.898H12.3988V5.13948L12.1478 5.26959C11.2024 5.90389 10.2821 6.5382 9.32833 7.1725C7.43753 8.4655 5.54674 9.74224 3.67268 11.0352C3.67268 11.0352 3.58065 11.1003 3.53882 11.1166C3.50115 11.1394 3.47093 11.1721 3.45168 11.211C3.43242 11.2499 3.42493 11.2933 3.43006 11.3361V12.1981C3.44239 12.2708 3.44239 12.345 3.43006 12.4177H-0.000138742C-0.000138742 12.3526 -0.000138742 12.2632 -0.000138742 12.1981V9.66092C-0.00416473 9.5868 0.0123421 9.513 0.04766 9.4472C0.0829779 9.38141 0.135813 9.32603 0.200653 9.28684C2.04961 8.04263 3.89857 6.77403 5.74753 5.52169L13.6621 0.130113L13.8629 0C13.9298 0.0894529 13.9967 0.15451 14.0888 0.260227C14.1561 0.167203 14.2316 0.0801236 14.3147 0C14.3565 0 14.4234 0.0650567 14.4736 0.0813208L25.4252 7.56284C26.2618 8.13208 27.0984 8.71759 27.9351 9.28684C28.0164 9.334 28.0823 9.40255 28.1252 9.48457C28.1681 9.56658 28.1863 9.65873 28.1777 9.75037C28.1777 10.5636 28.1777 11.3768 28.1777 12.19C28.2151 12.2781 28.2377 12.3714 28.2446 12.4665V12.4665Z" fill="white"/>
<path d="M39.1294 19.1917C39.966 15.9388 40.8027 12.751 41.723 9.50635H44.8603C45.103 9.50635 45.103 9.50635 45.1532 9.72591C45.6886 11.8321 46.2073 13.9383 46.7511 16.0608C47.0189 17.0936 47.2698 18.1426 47.5376 19.1754C47.5612 19.2434 47.5921 19.3088 47.6296 19.3706C47.7917 18.8365 47.9202 18.2934 48.0144 17.7441C48.1483 17.1912 48.2654 16.6463 48.3742 16.1177C48.483 15.5891 48.6252 15.0199 48.734 14.4913C48.8427 13.9627 48.9849 13.3935 49.0937 12.8649C49.2025 12.3363 49.3447 11.7671 49.4535 11.1978C49.5622 10.6286 49.7044 10.1 49.8132 9.57141H52.6578C52.6578 9.67712 52.6578 9.79097 52.5908 9.87229L49.2443 23.4854C49.247 23.5206 49.247 23.5559 49.2443 23.5911C49.2443 23.6806 49.1774 23.705 49.1104 23.705H46.2324C46.2324 23.6399 46.2324 23.5505 46.1655 23.4854L43.505 13.304C43.505 13.2308 43.505 13.1251 43.3628 13.0845C42.4174 16.6057 41.4971 20.1187 40.5517 23.6562H40.3007H37.6486C37.4059 23.6562 37.4059 23.6562 37.3306 23.4203C36.837 21.3792 36.3685 19.3543 35.8665 17.2806C35.3645 15.2069 34.8291 12.9462 34.3104 10.775C34.2267 10.4253 34.1347 10.0756 34.0678 9.72591C34.0539 9.65334 34.0539 9.57892 34.0678 9.50635H36.7032C36.9541 9.50635 36.9541 9.50635 36.996 9.72591C37.247 10.8888 37.5147 12.0517 37.7657 13.1902C38.1924 15.1175 38.6023 17.0692 39.0541 18.9965C39.0618 19.0532 39.0618 19.1106 39.0541 19.1673C39.0876 19.1917 39.1127 19.1917 39.1294 19.1917Z" fill="white"/>
<path d="M67.5081 9.50644H73.7326C74.4139 9.49313 75.0948 9.54488 75.7656 9.66095C76.4611 9.77714 77.1056 10.0909 77.6178 10.5627C78.13 11.0345 78.4869 11.6432 78.6436 12.312C78.8178 13.0229 78.7486 13.7696 78.4466 14.4388C78.1446 15.108 77.6264 15.6632 76.9704 16.0202L76.7696 16.126C76.8413 16.1652 76.9086 16.2115 76.9704 16.2642C77.5285 16.4521 78.0371 16.7575 78.4596 17.1587C79.0367 17.756 79.3724 18.5357 79.405 19.3544C79.4381 20.2779 79.1718 21.1883 78.6436 21.9567C78.3591 22.3707 77.989 22.7227 77.5569 22.9901C77.1248 23.2575 76.6401 23.4345 76.1337 23.5099C75.7991 23.5099 75.4393 23.5749 75.0963 23.5993C72.6617 23.6807 70.2271 23.64 67.8176 23.64H67.6837C67.6655 23.6428 67.6469 23.6413 67.6293 23.6358C67.6118 23.6302 67.5958 23.6207 67.5828 23.608C67.5697 23.5953 67.5599 23.5798 67.5542 23.5628C67.5485 23.5457 67.547 23.5276 67.5499 23.5099V9.75853C67.5292 9.6757 67.5152 9.5914 67.5081 9.50644ZM72.5279 21.3224H73.582C74.0087 21.3224 74.4186 21.3224 74.8453 21.2573C75.2053 21.2368 75.5488 21.1038 75.8247 20.8781C76.1006 20.6524 76.2941 20.3462 76.3764 20.005C76.4235 19.7884 76.4459 19.5675 76.4433 19.3463C76.4486 18.9177 76.2911 18.5023 76.0008 18.1797C75.7106 17.8571 75.3081 17.6499 74.8704 17.5979C74.3422 17.5148 73.8075 17.4767 73.2725 17.484H70.4614C70.3108 17.484 70.2857 17.484 70.2857 17.6629V21.2085C70.2828 21.2262 70.2843 21.2444 70.29 21.2614C70.2957 21.2785 70.3055 21.294 70.3186 21.3066C70.3316 21.3193 70.3476 21.3288 70.3651 21.3344C70.3827 21.34 70.4013 21.3414 70.4195 21.3386H70.5785C71.2562 21.3224 71.8836 21.3224 72.5195 21.3224H72.5279ZM72.4609 11.8078C71.8502 11.8078 71.2394 11.8078 70.6287 11.8078H70.4697C70.4515 11.805 70.4329 11.8065 70.4153 11.812C70.3978 11.8176 70.3818 11.8271 70.3688 11.8398C70.3557 11.8525 70.3459 11.868 70.3402 11.885C70.3345 11.9021 70.333 11.9202 70.3359 11.9379V15.0037C70.3359 15.1176 70.3861 15.1582 70.4948 15.142H73.4231C73.8016 15.1455 74.1796 15.1156 74.5525 15.0525C74.8769 15.015 75.1814 14.8807 75.4241 14.6681C75.6668 14.4554 75.8358 14.175 75.9079 13.8652C75.9665 13.6273 75.9665 13.3794 75.9079 13.1415C75.8836 12.8838 75.7841 12.6382 75.621 12.4336C75.458 12.229 75.2382 12.074 74.9876 11.9867C74.7789 11.9074 74.5587 11.8607 74.335 11.8485C73.7075 11.8322 73.08 11.8322 72.4526 11.8078H72.4609Z" fill="white"/>
<path d="M94.0459 9.50635H100.538C101.247 9.51271 101.955 9.57253 102.655 9.68525C103.268 9.77646 103.843 10.0316 104.316 10.4222C104.789 10.8128 105.141 11.3235 105.332 11.8972C105.706 12.8542 105.736 13.9062 105.416 14.8817C105.255 15.3701 104.982 15.8168 104.618 16.1885C104.255 16.5602 103.81 16.8474 103.316 17.0285C102.944 17.1689 102.561 17.2777 102.17 17.3538L101.877 17.4189C101.934 17.4751 102.002 17.5194 102.078 17.549C102.846 18.0019 103.501 18.6159 103.993 19.3462L105.617 21.8265C105.951 22.3469 106.294 22.8999 106.629 23.4529C106.679 23.5179 106.696 23.583 106.763 23.6724C106.679 23.6724 106.604 23.6724 106.537 23.6724H103.609C103.541 23.6782 103.473 23.6643 103.413 23.6324C103.354 23.6006 103.305 23.5522 103.274 23.4935C102.437 22.3144 101.668 21.1108 100.881 19.9235C100.613 19.5332 100.321 19.1591 100.045 18.7607C99.953 18.6349 99.8493 18.5178 99.735 18.411C99.333 18.0147 98.7926 17.7796 98.2207 17.7523C97.8359 17.7523 97.4761 17.7523 97.0913 17.7523H96.8737V23.6643C96.6313 23.6765 96.3883 23.6765 96.1459 23.6643H94.071C94.0208 23.4935 93.9957 9.75844 94.0459 9.50635ZM96.8821 15.516H97.1331H99.5593C100.161 15.5257 100.762 15.4903 101.358 15.4102C101.654 15.3652 101.932 15.2409 102.159 15.0513C102.387 14.8617 102.555 14.6143 102.647 14.3368C102.732 14.0519 102.763 13.7543 102.739 13.4585C102.717 13.1215 102.587 12.7994 102.368 12.5371C102.149 12.2748 101.852 12.0853 101.517 11.9948C101.244 11.925 100.962 11.8949 100.68 11.9053C99.484 11.9053 98.2876 11.9053 97.1164 11.9053C97.0745 11.9053 97.0076 11.9053 96.9407 11.9053C96.8821 13.0845 96.8821 14.288 96.8821 15.516Z" fill="white"/>
<path d="M126.524 23.6399C126.432 23.6399 126.365 23.6399 126.298 23.6399H124.023C124.008 23.6411 123.993 23.6393 123.979 23.6344C123.966 23.6295 123.953 23.6218 123.943 23.6117C123.932 23.6016 123.924 23.5894 123.919 23.5761C123.914 23.5627 123.913 23.5484 123.914 23.5342V9.75842C123.907 9.67182 123.907 9.5848 123.914 9.4982C124.006 9.4982 124.048 9.4982 124.123 9.4982H126.466C126.527 9.49631 126.588 9.51232 126.64 9.54419C126.692 9.57606 126.733 9.62234 126.758 9.6771L129.143 13.5805L132.322 18.7525C132.379 18.8197 132.433 18.8903 132.481 18.9639C132.492 18.9056 132.509 18.8484 132.531 18.7932V9.75842C132.523 9.67186 132.523 9.58476 132.531 9.4982H135.1C135.15 9.65271 135.15 23.3227 135.1 23.6318H134.882H132.514C132.443 23.6391 132.372 23.6242 132.31 23.589C132.248 23.5539 132.2 23.5005 132.171 23.4366C130.749 21.1108 129.31 18.8094 127.871 16.5081C127.486 15.8738 127.076 15.2394 126.691 14.6051C126.641 14.5356 126.596 14.4622 126.558 14.3856C126.54 14.4417 126.526 14.4987 126.516 14.5564V23.3553C126.505 23.4501 126.508 23.5458 126.524 23.6399V23.6399Z" fill="white"/>
<path d="M121.588 16.6058C121.608 17.687 121.433 18.7633 121.069 19.7854C120.774 20.6689 120.27 21.4727 119.597 22.1323C118.925 22.7918 118.102 23.2888 117.196 23.5831C116.388 23.847 115.537 23.9655 114.686 23.9328C113.86 23.9478 113.037 23.8297 112.251 23.5831C111.321 23.2919 110.477 22.7874 109.79 22.1122C109.102 21.4371 108.592 20.6112 108.302 19.7041C108.075 19.0294 107.931 18.3304 107.876 17.6223C107.834 16.9588 107.834 16.2934 107.876 15.6299C107.931 14.4704 108.272 13.3408 108.871 12.3364C109.341 11.5156 110.009 10.818 110.818 10.3038C111.627 9.78958 112.552 9.47409 113.515 9.38449C114.208 9.291 114.909 9.27463 115.606 9.3357C116.885 9.42159 118.106 9.88503 119.106 10.664C120.106 11.443 120.838 12.5003 121.203 13.6945C121.407 14.345 121.534 15.0163 121.58 15.695C121.563 15.9715 121.588 16.3049 121.588 16.6058ZM118.685 16.5651C118.685 16.2561 118.685 15.9552 118.635 15.6706C118.6 15.0983 118.47 14.5352 118.25 14.0035C118.07 13.5165 117.781 13.0747 117.403 12.7102C117.025 12.3458 116.569 12.0681 116.066 11.8973C115.48 11.7062 114.856 11.6478 114.242 11.7265C113.789 11.7564 113.346 11.8739 112.939 12.0722C112.532 12.2705 112.171 12.5455 111.875 12.8813C111.46 13.3523 111.16 13.9083 110.996 14.5077C110.792 15.2855 110.708 16.0885 110.745 16.8904C110.757 17.5834 110.873 18.2709 111.088 18.9316C111.245 19.4188 111.502 19.8702 111.842 20.2587C112.183 20.6471 112.601 20.9647 113.071 21.1923C113.645 21.4559 114.278 21.5761 114.912 21.542C115.517 21.5253 116.108 21.3573 116.627 21.054C117.431 20.5677 118.026 19.8132 118.3 18.9316C118.525 18.1605 118.654 17.366 118.685 16.5651Z" fill="white"/>
<path d="M168.565 13.5236L165.771 13.6537C165.771 13.5642 165.771 13.4992 165.704 13.4341C165.665 13.2433 165.603 13.0577 165.52 12.8811C165.417 12.592 165.238 12.3338 165.002 12.1314C164.766 11.9291 164.481 11.7895 164.173 11.7264C163.393 11.5259 162.571 11.5485 161.805 11.7914C161.598 11.8615 161.401 11.9572 161.219 12.0761C161.058 12.1734 160.923 12.3082 160.829 12.4684C160.734 12.6287 160.682 12.8093 160.677 12.994C160.672 13.1787 160.714 13.3617 160.8 13.5266C160.886 13.6914 161.013 13.8329 161.169 13.9383C161.338 14.0537 161.521 14.1492 161.713 14.2229C162.36 14.4885 163.033 14.6927 163.721 14.8328C164.577 15.0238 165.416 15.2794 166.231 15.5972C166.83 15.8257 167.376 16.1686 167.837 16.6056C168.49 17.2665 168.881 18.1308 168.941 19.0452C169.018 19.6814 168.947 20.3262 168.732 20.9319C168.525 21.5595 168.164 22.1288 167.68 22.5906C167.196 23.0524 166.604 23.393 165.955 23.583C165.315 23.7694 164.655 23.8786 163.989 23.9082C163.509 23.9326 163.029 23.9326 162.549 23.9082C161.624 23.8783 160.719 23.6388 159.906 23.2089C158.906 22.6475 158.16 21.7421 157.814 20.6717C157.654 20.2318 157.541 19.7765 157.479 19.3136V19.1103L160.207 18.8419C160.22 18.9482 160.248 19.0523 160.291 19.151C160.386 19.4635 160.501 19.7704 160.634 20.0699C160.8 20.4382 161.057 20.7609 161.383 21.0091C161.708 21.2574 162.092 21.4237 162.499 21.493C163.218 21.6286 163.96 21.6008 164.666 21.4117C165.133 21.2763 165.537 20.9892 165.812 20.5985C165.967 20.4082 166.075 20.1867 166.13 19.9504C166.185 19.714 166.185 19.4686 166.13 19.2323C166.058 18.9248 165.874 18.6532 165.612 18.4679C165.34 18.2706 165.034 18.1219 164.708 18.0287L162.483 17.4432C161.679 17.2564 160.899 16.9836 160.157 16.63C159.681 16.4081 159.257 16.0959 158.907 15.7118C158.558 15.3277 158.292 14.8795 158.124 14.3937C157.838 13.5101 157.897 12.5552 158.289 11.7109C158.681 10.8666 159.378 10.1919 160.249 9.81533C160.912 9.53461 161.619 9.36417 162.34 9.31114C162.897 9.27129 163.457 9.27129 164.014 9.31114C164.739 9.35538 165.45 9.52616 166.114 9.81533C166.73 10.0865 167.267 10.503 167.676 11.027C168.085 11.551 168.353 12.1659 168.456 12.8161C168.456 13.0194 168.456 13.2145 168.523 13.3853L168.565 13.5236Z" fill="white"/>
<path d="M64.1531 17.3945H57.3429C57.0334 17.3945 57.0334 17.3945 57.0334 17.7035V21.1434C57.0334 21.3142 57.0334 21.3386 57.2342 21.3386H64.9897V23.64C64.8308 23.6806 54.5067 23.705 54.239 23.64C54.239 23.5586 54.239 23.4448 54.239 23.3553V9.7585C54.2279 9.66393 54.2279 9.56845 54.239 9.47388H64.7137C64.7137 10.2871 64.7137 11.0352 64.7137 11.824H57.3429C57.0334 11.824 57.0334 11.7753 57.0334 12.1249V14.8817C57.0334 15.0118 57.0334 15.0281 57.2091 15.0525H63.9021C64.2368 15.0525 64.2368 15.0525 64.2368 15.3615V17.0774C64.1782 17.2238 64.1782 17.2888 64.1531 17.3945Z" fill="white"/>
<path d="M155.614 13.3854L152.845 14.0441C152.823 13.9697 152.798 13.8965 152.769 13.8245C152.617 13.2807 152.313 12.7883 151.891 12.4014C151.321 11.8968 150.57 11.6284 149.799 11.6533C149.274 11.6399 148.752 11.7505 148.28 11.9757C147.808 12.2009 147.399 12.5339 147.089 12.9463C146.778 13.3778 146.556 13.8639 146.436 14.3775C146.261 15.1597 146.185 15.96 146.21 16.7602C146.198 17.4796 146.291 18.197 146.486 18.8908C146.638 19.5528 146.981 20.1592 147.474 20.6392C148.038 21.1707 148.788 21.4756 149.573 21.4931C149.955 21.5225 150.338 21.478 150.701 21.3621C151.065 21.2462 151.401 21.0613 151.69 20.8181C152.05 20.5271 152.336 20.1599 152.527 19.7447C152.686 19.4113 152.778 19.0616 152.912 18.7119C152.912 18.6469 152.953 18.5818 152.979 18.4924L155.614 19.3462V19.4113C155.394 20.2921 154.996 21.1215 154.443 21.8509C153.821 22.6773 152.94 23.2852 151.933 23.583C150.625 23.9906 149.222 24.0132 147.9 23.6481C147.075 23.433 146.308 23.0449 145.653 22.511C144.998 21.9772 144.472 21.3106 144.11 20.5579C143.709 19.7762 143.457 18.9304 143.366 18.0614C143.293 17.4297 143.271 16.7935 143.299 16.1584C143.308 15.0039 143.562 13.8635 144.043 12.808C144.443 11.9016 145.072 11.1083 145.872 10.5025C146.672 9.89665 147.618 9.49798 148.62 9.34376C149.716 9.14269 150.845 9.19563 151.916 9.49827C152.75 9.71057 153.514 10.1281 154.134 10.7107C154.754 11.2932 155.209 12.0212 155.455 12.8243C155.455 12.9544 155.539 13.1089 155.589 13.239C155.581 13.2637 155.58 13.2897 155.584 13.315C155.589 13.3404 155.599 13.3644 155.614 13.3854V13.3854Z" fill="white"/>
<path d="M87.8885 23.6401C87.7965 23.6401 87.7295 23.6401 87.6626 23.6401H85.1527C85.1377 23.6412 85.1227 23.6393 85.1085 23.6345C85.0943 23.6297 85.0813 23.6221 85.0703 23.6121C85.0593 23.6022 85.0505 23.5902 85.0446 23.5768C85.0386 23.5634 85.0355 23.5489 85.0356 23.5343V12.1982C85.0433 12.0791 85.0433 11.9596 85.0356 11.8404H80.8524C80.7806 11.0694 80.7806 10.2937 80.8524 9.52276V9.52276H92.0298C92.0402 9.51775 92.0517 9.51514 92.0633 9.51514C92.0749 9.51514 92.0863 9.51775 92.0967 9.52276C92.1511 10.2971 92.1511 11.0742 92.0967 11.8485H88.198C87.9052 11.8485 87.9052 11.8485 87.9052 12.1332V23.3392C87.8872 23.4384 87.8816 23.5395 87.8885 23.6401V23.6401Z" fill="white"/>
<path d="M140.973 23.64H138.22C138.178 23.4937 138.153 9.8155 138.22 9.53088C138.354 9.49022 140.73 9.46582 140.99 9.53088C140.998 9.68539 141.023 23.3798 140.973 23.64Z" fill="white"/>
</g>
<defs>
<clipPath id="clip0_1_238">
<rect width="169" height="33" fill="white"/>
</clipPath>
</defs>
</svg>
