<svg width="24" height="22" viewBox="0 0 24 22" fill="none" xmlns="http://www.w3.org/2000/svg">
<path fill-rule="evenodd" clip-rule="evenodd" d="M5.10675 1.5567L7.47449 8.82489C7.54154 9.03072 7.73343 9.17002 7.9499 9.17002H16.0499C16.2665 9.17002 16.4585 9.03054 16.5254 8.82452L18.8867 1.55699L21.2544 8.84452L22.5221 12.5978C22.5401 12.6657 22.5366 12.7376 22.512 12.8035C22.4865 12.8721 22.4396 12.9306 22.3782 12.9703C22.3744 12.9727 22.3707 12.9752 22.3671 12.9777C22.3633 12.9803 22.3596 12.9829 22.3559 12.9856L11.9999 20.5119L1.64613 12.9872C1.64585 12.987 1.64556 12.9868 1.64527 12.9866C1.58792 12.9441 1.54537 12.8847 1.52366 12.8167C1.50185 12.7484 1.50222 12.6749 1.5247 12.6067L5.10675 1.5567ZM4.48269 0.630847C4.65407 0.474308 4.87779 0.387512 5.1099 0.387512C5.34201 0.387512 5.56573 0.474308 5.73711 0.630847L5.74753 0.640366C5.85864 0.74776 5.94075 0.88153 5.98658 1.02904L8.31288 8.17002H15.6866L18.0144 1.00552C18.0172 0.996821 18.0203 0.9882 18.0236 0.979667C18.0754 0.845623 18.1579 0.725591 18.2645 0.629191C18.4357 0.473698 18.6586 0.387512 18.8899 0.387512C19.122 0.387512 19.3457 0.474307 19.5171 0.630847L19.5275 0.640366C19.6387 0.747825 19.7208 0.881693 19.7667 1.02931L22.2045 8.5328L23.4736 12.29C23.475 12.294 23.4762 12.298 23.4775 12.302C23.4783 12.3047 23.4792 12.3075 23.48 12.3102C23.5606 12.587 23.5498 12.8823 23.4492 13.1525C23.3503 13.4179 23.17 13.6451 22.9342 13.8015L12.2938 21.5345C12.1186 21.6619 11.8812 21.6619 11.7059 21.5345L1.05595 13.7945L1.05367 13.7928C0.825909 13.6253 0.656964 13.3901 0.571005 13.1207C0.485232 12.852 0.486473 12.563 0.574524 12.295C0.574715 12.2945 0.574906 12.2939 0.575098 12.2933L4.23437 1.00552C4.2372 0.996821 4.24026 0.9882 4.24356 0.979667C4.2954 0.845625 4.37792 0.725592 4.48451 0.629191L4.81989 1.00001L4.48269 0.630847Z" fill="white"/>
</svg>
