<svg width="24" height="20" viewBox="0 0 24 20" fill="none" xmlns="http://www.w3.org/2000/svg">
<path fill-rule="evenodd" clip-rule="evenodd" d="M14.7038 0.817308C15.6569 0.453526 16.6988 0.391236 17.6885 0.638864C18.57 0.859449 19.3723 1.31648 20.0103 1.95779C20.9721 1.63671 21.8823 1.17652 22.7118 0.591403L23.0001 0.999985L23.4859 1.11829C23.1453 2.51648 22.4441 3.79925 21.4543 4.83956C21.484 5.05781 21.4993 5.27787 21.5 5.49833L21.5001 5.49998C21.5001 11.425 18.6566 15.725 14.61 17.8789C10.5755 20.0262 5.39549 20.0139 0.75723 17.4371C0.554825 17.3246 0.456102 17.0879 0.518626 16.865C0.58115 16.642 0.788563 16.4912 1.01992 16.5004C3.10349 16.5833 5.16228 16.0796 6.96515 15.0554C5.09829 14.0778 3.83066 12.8611 2.99952 11.5488C2.05239 10.0533 1.69108 8.46394 1.62557 7.02269C1.56016 5.58363 1.78892 4.28193 2.0316 3.34354C2.15325 2.87319 2.27921 2.49095 2.37554 2.22452C2.42373 2.09122 2.46459 1.98666 2.49391 1.9143C2.50857 1.87811 2.52035 1.84995 2.52873 1.83025L2.53868 1.80709L2.54163 1.80036L2.54196 1.79959C2.54538 1.79179 2.549 1.78405 2.55284 1.77638L3.00005 1.99998L3.40923 1.71263C4.37216 3.08379 5.65924 4.19552 7.15586 4.94881C8.50724 5.62901 9.99158 5.99789 11.5001 6.03111V5.53326C11.4871 4.51436 11.787 3.51599 12.3593 2.67287C12.9323 1.82881 13.7507 1.18109 14.7038 0.817308ZM3.16011 3.02968C3.10822 3.1967 3.05358 3.38577 2.99975 3.59393C2.77369 4.46804 2.56495 5.66634 2.62454 6.97728C2.68402 8.28603 3.01021 9.69667 3.84434 11.0137C4.67644 12.3276 6.03307 13.5786 8.20312 14.5431C8.36902 14.6168 8.48192 14.7747 8.49807 14.9555C8.51422 15.1363 8.43108 15.3117 8.28087 15.4137C6.70033 16.4865 4.89734 17.1658 3.02155 17.4087C6.87957 18.9473 10.9237 18.7081 14.1401 16.9961C17.8432 15.0251 20.4997 11.0755 20.5001 5.50106C20.4992 5.25366 20.4754 5.00687 20.4289 4.76386C20.3976 4.59993 20.4501 4.43117 20.569 4.31398C21.2015 3.69017 21.7107 2.95783 22.0745 2.15568C21.4151 2.50675 20.7217 2.79269 20.0042 3.00875C19.8159 3.06546 19.6118 3.0065 19.4828 2.8581C18.9477 2.2429 18.2367 1.80686 17.4457 1.60896C16.6548 1.41105 15.8221 1.46084 15.0604 1.75157C14.2987 2.0423 13.6446 2.55996 13.1867 3.23453C12.7288 3.9091 12.4891 4.70804 12.5 5.52328L12.5001 5.52998H12.5001V6.52998C12.5001 6.80108 12.284 7.02279 12.013 7.02982C10.1732 7.07752 8.35018 6.66949 6.70626 5.84205C5.3416 5.15517 4.13554 4.19698 3.16011 3.02968Z" fill="white"/>
</svg>
